<svg width="960" height="960" viewBox="0 0 960 960" fill="none" xmlns="http://www.w3.org/2000/svg">
<path fill-rule="evenodd" clip-rule="evenodd" d="M534.318 614.695L535.136 614.215C557.203 651.802 578.564 689.387 599.924 726.97C622.364 766.453 644.803 805.934 668.057 845.413C673.552 854.746 679.832 864.756 690.016 868.441C695.915 870.578 701.944 870.24 707.865 868.485C716.339 865.985 724.582 860.551 731.865 855.285C740.217 849.245 748.656 843.128 755.296 835.245C758.562 831.426 761.247 827.147 763.266 822.545C765.427 817.702 766.495 812.442 766.395 807.139C766.014 794.681 758.49 783.734 751.327 773.539C698.436 698.153 658.715 632.831 615.527 551.525C607.273 555.123 598.845 558.067 589.893 558.972C585.554 559.408 580.08 558.644 578.63 554.523C577.768 552.059 578.804 549.366 580.189 547.098C569.624 551.149 558.179 555.658 546.998 560.063C540.755 562.523 534.594 564.95 528.714 567.247L525.269 557.747L523.077 558.547C490.42 571.784 455.211 577.533 420.04 575.371L420.029 575.471C427.966 610.34 409.169 649.451 377.004 665.053C344.839 680.655 302.48 671.169 280.03 643.344C276.966 639.545 274.189 635.411 271.414 631.281C264.808 621.449 258.218 611.642 247.822 606.436C242.744 603.935 237.107 602.786 231.456 603.1C224.631 603.524 218.005 605.569 212.129 609.066C206.253 612.564 201.296 617.413 197.669 623.21C192.228 632.172 190.124 642.661 190.702 653.172C191.229 662.117 193.541 670.866 197.502 678.904C206.05 696.286 220.911 709.804 236.939 720.686C258.075 735.072 281.694 745.416 306.6 751.194C373.756 766.6 448.28 744.445 496.091 694.835C517.118 673.028 533.518 644.974 534.318 614.695ZM614.853 579.811C614.387 579.037 613.382 578.787 612.608 579.253C611.834 579.718 611.584 580.723 612.05 581.497L737.311 789.723C737.776 790.497 738.781 790.747 739.555 790.282C740.329 789.816 740.579 788.811 740.114 788.037L614.853 579.811Z" fill="#171717"/>
<path d="M765.36 822.556C785.89 826.365 806.628 828.943 827.465 830.276C837.627 830.919 848.617 831.576 856.402 838.148C859.368 840.691 861.689 843.901 863.173 847.514L862.159 847.939C859.422 857.676 856.653 867.51 851.943 876.473C847.233 885.436 840.375 893.58 831.292 898.051C822.831 902.216 813.149 902.914 803.739 903.514C780.82 904.986 757.894 906.327 734.961 907.537L734.874 907.613C731.333 903.756 728.195 899.547 725.508 895.052C719.915 885.991 715.193 876.222 707.866 868.502C716.338 865.994 724.581 860.564 731.866 855.302C740.218 849.262 748.657 843.145 755.297 835.262C758.563 831.443 761.249 827.164 763.267 822.562L765.36 822.556Z" fill="url(#paint0_linear_46_7766)"/>
<path d="M748.841 282.993C749.353 284.53 697.53 302.493 697.53 302.493L656.479 231.687L719.078 205.519C719.078 205.519 748.329 281.456 748.841 282.993ZM724.211 277.868L711.89 251.188L723.7 245.54L689.833 226.04L683.161 261.956L697.531 255.796L710.867 281.964L724.211 277.868Z" fill="url(#paint1_linear_46_7766)"/>
<path d="M711.89 251.188L724.211 277.868L710.865 281.968L697.53 255.8L683.16 261.96L689.833 226.045L723.698 245.54L711.89 251.188Z" fill="#171717"/>
<path d="M390.732 502.063C388.606 451.863 386.484 401.663 384.364 351.463C362.727 369.861 346.734 394.003 338.232 421.103C334.35 433.664 332.17 447.26 335.746 459.908C339.704 473.864 350.433 485.226 363.081 492.302C371.735 496.972 381.064 500.265 390.732 502.063ZM428.665 291.716L525.265 557.757L523.073 558.557C490.417 571.791 455.21 577.539 420.04 575.377C407.651 574.62 395.341 572.874 383.23 570.154C357.978 564.462 333.14 554.192 314.321 536.419C289.516 512.999 277.315 477.846 278.743 443.762C280.171 409.678 294.389 376.826 315.465 349.993C336.432 323.293 363.919 302.236 393.478 285.511C388.757 282.469 388.648 274.706 392.148 270.083C394.514 266.965 397.872 264.926 401.492 263.334C403.553 262.451 405.692 261.699 407.772 260.979C417.839 257.512 427.903 254.048 437.963 250.588C441.321 249.432 444.683 248.276 448.049 247.121C451.309 245.998 454.656 244.864 458.113 244.864C461.57 244.864 465.213 246.205 467.097 249.105C469.197 252.343 469.114 257.305 472.581 259.016C474.794 260.116 477.433 259.267 479.744 258.405C502.544 249.921 525.344 241.442 548.144 232.967C556.507 229.86 564.935 226.73 573.767 225.422C582.479 224.135 591.714 224.746 599.553 228.722L587.81 233.051L428.665 291.716Z" fill="url(#paint2_linear_46_7766)"/>
<path d="M550.27 343.539L536.924 373.305L479.976 343.027L493.823 309.673L550.27 343.539Z" fill="url(#paint3_linear_46_7766)"/>
<path d="M462.716 95.1391C464.024 98.1481 463.305 101.616 462.378 104.767C459.652 113.959 453.378 124.208 447.648 131.884L447.659 131.906C442.228 133.301 436.972 135.306 431.991 137.881C434.608 134.981 437.334 131.841 437.868 127.981C438.402 124.121 435.557 119.575 431.675 119.902C430.244 120.136 428.882 120.679 427.684 121.494C416.53 128.003 405.372 134.505 394.211 141L394.091 140.8C395.815 135.346 398.179 130.116 401.135 125.219C403.328 121.537 405.822 118.044 408.593 114.774C418.232 103.336 431.093 94.5261 445.193 90.7101C448.335 89.6939 451.658 89.3558 454.941 89.7181C458.191 90.2441 461.386 92.1191 462.716 95.1391Z" fill="url(#paint4_linear_46_7766)"/>
<path d="M432.579 148.162C421.839 148.98 410.947 148.347 400.447 150.662C388.835 153.213 377.147 160.584 374.29 172.12C372.447 179.545 374.552 187.32 376.765 194.646C378.923 201.8 381.198 208.923 383.59 216.017L383.514 216.039C379.58 221.873 375.644 227.71 371.706 233.55C369.26 231.7 367.294 229.289 365.974 226.521C364.653 223.753 364.016 220.708 364.117 217.642C364.809 215.559 365.266 213.405 365.48 211.22C364.627 213.257 364.165 215.435 364.117 217.642C363.816 218.486 363.417 219.292 362.929 220.042C361.239 222.637 357.935 224.447 355.029 223.433C352.009 222.375 350.602 218.755 350.829 215.572C351.056 212.389 352.486 209.433 353.479 206.402C357.666 193.58 353.879 180.125 349.216 167.139L349.641 166.986C364.5 158.329 379.357 149.667 394.211 141C405.365 134.502 416.522 128 427.684 121.494C428.882 120.679 430.244 120.136 431.675 119.902C435.557 119.575 438.402 124.122 437.868 127.981C437.334 131.84 434.608 134.981 431.991 137.881C440.353 133.568 449.452 130.865 458.813 129.911C459.118 135.265 455.695 140.311 451.202 143.235C446.709 146.159 441.28 147.269 435.948 147.858C434.825 147.977 433.7 148.075 432.579 148.162Z" fill="#171717"/>
<path d="M378.542 97.4509C385.023 98.6428 391.19 101.152 396.663 104.822L396.401 105.215C386.925 106.456 377.969 110.264 370.501 116.227C374.535 121.21 378.318 126.389 381.851 131.764C387.523 127.991 394.041 125.68 400.823 125.037L401.128 125.222C398.172 130.119 395.808 135.349 394.084 140.803L394.204 141.003C379.343 149.67 364.485 158.331 349.631 166.986L349.206 167.139C347.963 163.704 346.666 160.303 345.433 156.955C339.533 140.971 335.598 121.465 346.218 108.141C353.661 98.8249 366.821 95.3249 378.542 97.4509Z" fill="url(#paint5_linear_46_7766)"/>
<path d="M182.729 655.059C168.929 659.693 156.986 669.342 144.164 676.626C138.952 679.592 133.195 682.252 127.209 681.826C121.855 681.444 116.916 678.588 113.035 674.859C109.154 671.13 106.21 666.583 103.287 662.08C101.706 659.627 100.114 657.174 98.718 654.611C97.318 646.521 103.537 639.211 109.61 633.687C125.616 619.109 143.825 607.181 161.935 595.318C177.374 585.211 193.249 574.907 211.251 570.84L211.644 570.556C219.051 580.792 225.667 591.577 231.434 602.819L231.456 603.102C224.631 603.525 218.005 605.569 212.128 609.066C206.252 612.563 201.294 617.411 197.667 623.208C192.226 632.171 190.122 642.66 190.7 653.17L189.577 653.225C187.257 653.686 184.969 654.299 182.729 655.059Z" fill="url(#paint6_linear_46_7766)"/>
<path d="M437.638 249.64C433.738 243.327 429.766 235.357 433.462 228.924C436.33 223.952 442.719 222.131 446.262 217.624C451.234 211.3 449.119 202.174 446.762 194.476C442.029 179.038 437.301 163.599 432.577 148.159V148.148" stroke="#171717" stroke-width="3.271" stroke-linecap="round" stroke-linejoin="round"/>
<path d="M421.839 162.228C418.764 158.793 412.539 160.058 409.954 163.863C407.369 167.668 407.839 172.902 409.78 177.078C411.721 181.254 414.926 184.678 417.838 188.254C420.75 191.83 423.475 195.788 424.151 200.346C420.738 201.84 417.329 203.334 413.924 204.827C414.556 204.456 415.2 204.086 415.832 203.727" stroke="#171717" stroke-width="3.271" stroke-linecap="round" stroke-linejoin="round"/>
<path d="M425.917 176.009C425.889 175.526 425.755 175.056 425.524 174.632C425.294 174.207 424.973 173.839 424.584 173.552C424.195 173.266 423.747 173.069 423.273 172.976C422.799 172.882 422.311 172.894 421.842 173.01C421.373 173.127 420.936 173.345 420.561 173.65C420.187 173.955 419.884 174.339 419.674 174.774C419.465 175.209 419.353 175.685 419.349 176.168C419.344 176.651 419.446 177.129 419.647 177.569" stroke="#171717" stroke-width="3.271" stroke-linecap="round" stroke-linejoin="round"/>
<path d="M400.981 182.2C400.917 181.662 400.724 181.147 400.419 180.699C400.114 180.251 399.707 179.883 399.23 179.626C398.753 179.368 398.222 179.229 397.68 179.219C397.138 179.21 396.602 179.331 396.117 179.571C395.632 179.812 395.211 180.166 394.891 180.603C394.571 181.04 394.361 181.548 394.277 182.083C394.194 182.619 394.241 183.166 394.413 183.68C394.586 184.193 394.879 184.658 395.268 185.035" stroke="#171717" stroke-width="3.271" stroke-linecap="round" stroke-linejoin="round"/>
<path d="M415.6 223.548C414.694 224.669 413.479 225.501 412.106 225.94C410.733 226.38 409.261 226.409 407.872 226.023C406.483 225.637 405.237 224.854 404.287 223.769C403.338 222.684 402.726 221.345 402.527 219.917" stroke="#171717" stroke-width="3.271" stroke-linecap="round" stroke-linejoin="round"/>
<path d="M401.33 262.942C394.853 247.525 388.94 231.882 383.59 216.014C381.202 208.926 378.927 201.803 376.765 194.643C374.552 187.316 372.447 179.543 374.29 172.117C377.147 160.581 388.835 153.211 400.447 150.659C410.947 148.347 421.839 148.98 432.579 148.159C433.702 148.072 434.825 147.974 435.948 147.854C441.28 147.265 446.71 146.154 451.202 143.231C455.694 140.308 459.118 135.261 458.813 129.907C449.452 130.86 440.353 133.563 431.991 137.877C434.608 134.977 437.334 131.837 437.868 127.977C438.402 124.117 435.557 119.571 431.675 119.898C430.244 120.131 428.882 120.675 427.684 121.49C416.53 128 405.372 134.504 394.211 141C379.35 149.666 364.492 158.327 349.638 166.983" stroke="#171717" stroke-width="3.271" stroke-linecap="round" stroke-linejoin="round"/>
<path d="M364.117 217.638C363.817 218.482 363.418 219.287 362.929 220.038C361.239 222.633 357.935 224.443 355.029 223.429C352.009 222.371 350.602 218.751 350.829 215.568C351.056 212.385 352.486 209.429 353.479 206.398C357.666 193.576 353.879 180.121 349.216 167.135C347.973 163.7 346.676 160.299 345.443 156.951C339.543 140.967 335.608 121.461 346.228 108.137C353.664 98.8259 366.828 95.3259 378.545 97.4519C385.026 98.6438 391.194 101.153 396.666 104.823C400.748 107.563 404.53 110.724 407.951 114.254" stroke="#171717" stroke-width="3.271" stroke-linecap="round" stroke-linejoin="round"/>
<path d="M364.117 217.638C364.165 215.431 364.628 213.252 365.48 211.216C365.266 213.401 364.809 215.554 364.117 217.638V217.638Z" stroke="#171717" stroke-width="3.271" stroke-linecap="round" stroke-linejoin="round"/>
<path d="M383.514 216.036C379.58 221.869 375.644 227.706 371.706 233.547C369.26 231.696 367.294 229.286 365.974 226.517C364.653 223.749 364.016 220.705 364.117 217.639" stroke="#171717" stroke-width="3.271" stroke-linecap="round" stroke-linejoin="round"/>
<path d="M394.09 140.8C395.814 135.346 398.178 130.116 401.134 125.219C403.327 121.537 405.821 118.044 408.592 114.774C418.231 103.336 431.092 94.5261 445.192 90.7101C448.334 89.6939 451.657 89.3558 454.94 89.7181C458.189 90.2411 461.384 92.1181 462.714 95.1371C464.022 98.1461 463.303 101.614 462.376 104.765C459.65 113.957 453.376 124.206 447.646 131.882" stroke="#171717" stroke-width="3.271" stroke-linecap="round" stroke-linejoin="round"/>
<path d="M396.4 105.214C386.926 106.456 377.972 110.264 370.505 116.226C374.539 121.209 378.322 126.388 381.855 131.763C387.527 127.99 394.045 125.679 400.827 125.036" stroke="#171717" stroke-width="3.271" stroke-linecap="round" stroke-linejoin="round"/>
<path d="M394.3 285.981C394.017 285.841 393.744 285.685 393.482 285.512C388.761 282.47 388.652 274.707 392.152 270.084C394.518 266.966 397.876 264.927 401.496 263.335C403.557 262.452 405.696 261.7 407.776 260.98C417.842 257.513 427.906 254.049 437.967 250.589C441.325 249.433 444.687 248.277 448.053 247.122C451.313 245.999 454.66 244.865 458.117 244.865C461.574 244.865 465.217 246.206 467.101 249.106C469.201 252.344 469.118 257.306 472.585 259.017C474.798 260.117 477.437 259.268 479.748 258.406C502.548 249.922 525.348 241.443 548.148 232.968C556.511 229.861 564.939 226.731 573.771 225.423C582.483 224.136 591.718 224.747 599.557 228.723C599.657 228.778 599.757 228.823 599.851 228.876" stroke="#171717" stroke-width="3.271" stroke-linecap="round" stroke-linejoin="round"/>
<path d="M393.905 285.272C393.763 285.348 393.622 285.436 393.48 285.512C363.921 302.238 336.434 323.292 315.467 349.994C294.391 376.827 280.173 409.679 278.745 443.763C277.317 477.847 289.518 513 314.323 536.42C333.142 554.192 357.98 564.463 383.232 570.155C395.343 572.875 407.653 574.622 420.042 575.378C455.214 577.54 490.422 571.791 523.079 558.554" stroke="#171717" stroke-width="3.271" stroke-linecap="round" stroke-linejoin="round"/>
<path d="M406.019 336.158C398.351 340.592 391.103 345.716 384.365 351.466C362.728 369.864 346.735 394.007 338.233 421.106C334.351 433.667 332.171 447.263 335.747 459.911C339.705 473.867 350.434 485.229 363.082 492.305C371.736 496.975 381.065 500.267 390.733 502.063C395.323 502.99 399.979 503.677 404.624 504.2C436.977 507.805 469.726 503.964 500.366 492.97" stroke="#171717" stroke-width="3.271" stroke-linecap="round" stroke-linejoin="round"/>
<path d="M384.354 351.226C384.354 351.302 384.365 351.39 384.365 351.466C386.491 401.666 388.613 451.866 390.733 502.066V502.088" stroke="#171717" stroke-width="3.271" stroke-linecap="round" stroke-linejoin="round"/>
<path d="M841.705 446.161L729.335 180.894L599.553 228.727L587.81 233.056L428.665 291.716L525.268 557.757L528.714 567.254" stroke="#171717" stroke-width="3.271" stroke-linecap="round" stroke-linejoin="round"/>
<path d="M815.483 456.312C823.683 452.321 833.495 450.141 841.706 446.161" stroke="#171717" stroke-width="3.271" stroke-linecap="round" stroke-linejoin="round"/>
<path d="M657.013 517.927L657.113 517.894C670.229 512.835 683.332 507.754 696.42 502.651C708.37 497.984 720.303 493.274 732.22 488.52" stroke="#171717" stroke-width="3.271" stroke-linecap="round" stroke-linejoin="round"/>
<path d="M528.714 567.254C545.124 560.843 563.725 553.418 580.189 547.105L580.353 547.04" stroke="#171717" stroke-width="3.271" stroke-linecap="round" stroke-linejoin="round"/>
<path d="M588.301 234.375L695.993 501.572" stroke="#171717" stroke-width="3.271" stroke-linecap="round" stroke-linejoin="round"/>
<path d="M536.924 373.305L550.27 343.539L493.823 309.673L479.976 343.027L536.924 373.305Z" stroke="#171717" stroke-width="3.271" stroke-linecap="round" stroke-linejoin="round"/>
<path d="M529.226 354.312L499.984 336.354" stroke="#171717" stroke-width="3.271" stroke-linecap="round" stroke-linejoin="round"/>
<path d="M697.53 302.488C697.53 302.488 749.354 284.53 748.841 282.988C748.328 281.446 719.075 205.509 719.075 205.509L656.475 231.677L697.53 302.488Z" stroke="#171717" stroke-width="3.271" stroke-linecap="round" stroke-linejoin="round"/>
<path d="M710.865 281.968L724.211 277.868L711.89 251.188L723.698 245.54L689.833 226.045L683.16 261.96L697.53 255.8L710.865 281.968Z" stroke="#171717" stroke-width="3.271" stroke-linecap="round" stroke-linejoin="round"/>
<path d="M420.029 575.475C427.967 610.344 409.18 649.465 377.004 665.057C344.828 680.649 302.48 671.174 280.03 643.348C269.672 630.504 262.585 613.833 247.822 606.44C242.745 603.939 237.108 602.79 231.456 603.104C224.631 603.527 218.005 605.571 212.128 609.068C206.252 612.565 201.294 617.413 197.667 623.21C192.226 632.173 190.122 642.662 190.7 653.172C191.227 662.117 193.539 670.866 197.5 678.904C206.048 696.284 220.909 709.804 236.937 720.686C258.074 735.071 281.694 745.415 306.6 751.194C373.754 766.6 448.278 744.445 496.089 694.835C517.111 673.028 533.52 644.974 534.316 614.695" stroke="#171717" stroke-width="3.271" stroke-linecap="round" stroke-linejoin="round"/>
<path d="M531.658 608.283C532.825 610.256 533.98 612.241 535.136 614.214C580.385 691.29 622.668 768.355 668.059 845.43C673.559 854.763 679.835 864.773 690.018 868.458C695.918 870.595 701.946 870.258 707.867 868.502C716.339 865.994 724.582 860.564 731.867 855.302C740.219 849.262 748.658 843.145 755.298 835.262C758.564 831.443 761.25 827.164 763.268 822.562C765.431 817.717 766.5 812.455 766.4 807.15C766.018 794.687 758.5 783.741 751.332 773.55C698.44 698.164 658.719 632.842 615.532 551.536C615.499 551.471 615.467 551.416 615.432 551.351" stroke="#171717" stroke-width="3.271" stroke-linecap="round" stroke-linejoin="round"/>
<path d="M231.434 602.821C225.667 591.579 219.051 580.794 211.644 570.558C211.055 569.751 210.466 568.944 209.878 568.148C207.316 564.692 204.285 561.061 200.054 560.265C195.454 559.393 191.026 562.165 187.154 564.801C160.746 582.792 134.338 600.782 108.476 619.536C103.21 623.352 97.6819 627.561 95.4679 633.678C93.7229 638.478 94.2899 643.862 96.0019 648.659C96.7567 650.709 97.6643 652.699 98.7169 654.612C100.117 657.174 101.705 659.628 103.286 662.081C106.208 666.581 109.163 671.142 113.034 674.86C116.905 678.578 121.855 681.446 127.208 681.827C133.194 682.252 138.951 679.592 144.163 676.627C156.985 669.344 168.924 659.694 182.728 655.06C184.968 654.301 187.255 653.689 189.575 653.228" stroke="#171717" stroke-width="3.271" stroke-linecap="round" stroke-linejoin="round"/>
<path d="M98.73 654.688C98.73 654.666 98.719 654.633 98.719 654.612C97.319 646.522 103.538 639.212 109.611 633.688C125.617 619.11 143.826 607.182 161.936 595.319C177.375 585.212 193.25 574.908 211.252 570.841" stroke="#171717" stroke-width="3.271" stroke-linecap="round" stroke-linejoin="round"/>
<path d="M182.74 655.091C182.74 655.08 182.729 655.069 182.729 655.058C179.619 644.204 174.561 634.007 167.8 624.965" stroke="#171717" stroke-width="3.271" stroke-linecap="round" stroke-linejoin="round"/>
<path d="M167.868 661.219C164.922 650.105 158.964 640.019 150.652 632.074" stroke="#171717" stroke-width="3.271" stroke-linecap="round" stroke-linejoin="round"/>
<path d="M151.96 671.239C148.327 660.331 142.527 650.269 134.907 641.658" stroke="#171717" stroke-width="3.271" stroke-linecap="round" stroke-linejoin="round"/>
<path d="M707.8 868.437L707.865 868.502C715.192 876.222 719.913 885.991 725.507 895.052C728.194 899.547 731.332 903.756 734.873 907.613C738.532 911.674 743.03 914.892 748.055 917.044C756.745 920.588 766.493 919.933 775.848 919.236C791.102 918.092 806.352 916.95 821.598 915.812C829.786 915.19 838.433 914.412 845.062 909.586C851.19 905.116 854.592 897.909 857.623 890.963C861.417 882.273 865.081 873.321 865.746 863.879C866.192 858.297 865.31 852.689 863.173 847.513C861.688 843.9 859.368 840.69 856.402 838.147C848.617 831.572 837.626 830.918 827.465 830.275C806.628 828.943 785.889 826.365 765.36 822.555" stroke="#171717" stroke-width="3.271" stroke-linecap="round" stroke-linejoin="round"/>
<path d="M734.961 907.536C757.902 906.326 780.828 904.985 803.739 903.513C813.149 902.913 822.831 902.213 831.292 898.05C840.374 893.58 847.233 885.435 851.943 876.472C856.653 867.509 859.423 857.672 862.159 847.938" stroke="#171717" stroke-width="3.271" stroke-linecap="round" stroke-linejoin="round"/>
<path d="M818.7 830.45C812.859 835.303 808.377 841.589 805.694 848.693C803.011 855.797 802.218 863.476 803.392 870.978" stroke="#171717" stroke-width="3.271" stroke-linecap="round" stroke-linejoin="round"/>
<path d="M798.79 828.705C792.49 832.789 787.525 838.63 784.508 845.505C781.491 852.38 780.554 859.988 781.813 867.39" stroke="#171717" stroke-width="3.271" stroke-linecap="round" stroke-linejoin="round"/>
<path d="M778.978 825.063C772.786 828.085 767.663 832.922 764.29 838.929C760.917 844.937 759.455 851.83 760.1 858.689" stroke="#171717" stroke-width="3.271" stroke-linecap="round" stroke-linejoin="round"/>
<path d="M650.253 536.332C650.198 536.354 650.133 536.365 650.079 536.387C638.179 540.269 627.008 546.538 615.526 551.532C607.272 555.132 598.844 558.074 589.892 558.979C585.552 559.415 580.079 558.652 578.629 554.53C577.768 552.066 578.803 549.373 580.188 547.105C580.264 546.963 580.352 546.821 580.439 546.691C584.787 540.017 591.465 535.201 599.171 533.182C593.186 522.605 588.945 511.133 586.61 499.207C585.923 495.663 585.749 491.237 588.769 489.263C589.773 488.703 590.91 488.425 592.06 488.458C593.209 488.49 594.329 488.832 595.3 489.448C597.225 490.709 598.869 492.353 600.13 494.278C606.17 502.5 610.863 511.631 614.03 521.329" stroke="#171717" stroke-width="3.271" stroke-linecap="round" stroke-linejoin="round"/>
<path d="M614.1 521.754C610.967 515.594 608.172 509.268 605.726 502.804C604.897 500.504 604.156 498.181 603.534 495.815C602.76 492.838 602.16 489.676 602.923 486.7C603.686 483.724 606.172 480.976 609.247 480.834C612.647 480.681 615.364 483.534 617.326 486.318C619.815 489.91 621.982 493.716 623.8 497.69C626.33 503.076 628.4 508.713 630.44 514.318" stroke="#171717" stroke-width="3.271" stroke-linecap="round" stroke-linejoin="round"/>
<path d="M629.886 515.016C627.535 509.36 625.504 503.576 623.802 497.691C622.755 494.091 621.839 490.468 621.054 486.82C620.269 483.233 619.702 479.144 621.839 476.157C624.63 472.243 630.845 472.384 634.77 475.157C638.695 477.93 640.876 482.484 642.893 486.834C646.905 495.48 650.914 504.13 654.919 512.784C655.693 514.452 656.467 516.153 657.111 517.898C658.066 520.273 658.558 522.808 658.561 525.367C658.461 529.499 654.112 534.82 649.98 536.096C649.713 536.184 649.44 536.25 649.162 536.296" stroke="#171717" stroke-width="3.271" stroke-linecap="round" stroke-linejoin="round"/>
<path d="M751.829 496.8C751.905 496.756 751.971 496.724 752.047 496.68C770.899 486.333 793.425 482.375 809.638 468.266C812.931 465.398 816.115 460.884 814.097 457.014C814.02 456.859 813.933 456.71 813.835 456.567C812.435 454.419 809.703 453.438 807.135 452.967C799.293 451.569 791.211 453.144 784.467 457.383C780.85 445.78 775.383 434.838 768.276 424.978C766.176 422.056 763.064 418.894 759.553 419.744C758.456 420.095 757.474 420.736 756.71 421.598C755.947 422.46 755.429 423.513 755.213 424.644C754.816 426.911 754.893 429.235 755.442 431.47C757.288 441.508 760.738 451.183 765.659 460.124" stroke="#171717" stroke-width="3.271" stroke-linecap="round" stroke-linejoin="round"/>
<path d="M765.927 460.445C763.58 453.956 760.879 447.601 757.837 441.408C756.737 439.227 755.537 437.079 754.228 434.997C752.593 432.391 750.706 429.797 748.002 428.324C745.298 426.851 741.613 426.776 739.402 428.924C736.971 431.29 737.189 435.237 737.876 438.563C738.788 442.836 740.08 447.019 741.736 451.063C743.936 456.602 746.642 461.963 749.325 467.287" stroke="#171717" stroke-width="3.271" stroke-linecap="round" stroke-linejoin="round"/>
<path d="M750.215 467.358C747.694 461.77 744.862 456.328 741.732 451.058C739.835 447.842 737.822 444.698 735.692 441.627C733.609 438.596 731.014 435.39 727.373 434.9C722.608 434.268 718.465 438.891 717.8 443.644C717.135 448.397 718.967 453.108 720.755 457.557C724.32 466.4 727.887 475.243 731.455 484.085C731.989 485.426 732.534 486.778 733.155 488.085C734.296 490.824 735.993 493.297 738.138 495.347C741.245 498.116 748.169 498.574 751.898 496.394C752.12 496.265 752.335 496.123 752.541 495.969" stroke="#171717" stroke-width="3.271" stroke-linecap="round" stroke-linejoin="round"/>
<path d="M764.486 199.874C767.565 199.104 792.193 192.174 792.193 192.174" stroke="#171717" stroke-width="3.271" stroke-linecap="round" stroke-linejoin="round"/>
<path d="M757.559 178.323L808.356 110.594" stroke="#171717" stroke-width="3.271" stroke-linecap="round" stroke-linejoin="round"/>
<path d="M739.088 168.318L742.166 136.762" stroke="#171717" stroke-width="3.271" stroke-linecap="round" stroke-linejoin="round"/>
<path d="M510.503 111.364L495.11 99.0498" stroke="#171717" stroke-width="3.271" stroke-linecap="round" stroke-linejoin="round"/>
<path d="M497.418 115.212L511.272 95.9707" stroke="#171717" stroke-width="3.271" stroke-linecap="round" stroke-linejoin="round"/>
<path d="M475.099 62.1071L486.643 39.7871" stroke="#171717" stroke-width="3.271" stroke-linecap="round" stroke-linejoin="round"/>
<path d="M488.952 58.2578L468.942 43.6348" stroke="#171717" stroke-width="3.271" stroke-linecap="round" stroke-linejoin="round"/>
<path d="M440.465 65.9551C438.156 66.7251 430.465 74.4211 430.465 74.4211" stroke="#171717" stroke-width="3.271" stroke-linecap="round" stroke-linejoin="round"/>
<path d="M438.925 73.6515L429.69 63.6465" stroke="#171717" stroke-width="3.271" stroke-linecap="round" stroke-linejoin="round"/>
<path d="M287.305 334.562C284.996 333.792 194.178 339.18 194.178 339.18" stroke="#171717" stroke-width="3.271" stroke-linecap="round" stroke-linejoin="round"/>
<path d="M198.026 410.757C195.717 411.527 96.4326 411.527 96.4326 411.527" stroke="#171717" stroke-width="3.271" stroke-linecap="round" stroke-linejoin="round"/>
<path d="M252.671 457.705L174.936 459.245" stroke="#171717" stroke-width="3.271" stroke-linecap="round" stroke-linejoin="round"/>
<path d="M637.445 853.357C621.525 838.585 610.105 819.615 604.5 798.633" stroke="#171717" stroke-width="3.271" stroke-linecap="round" stroke-linejoin="round"/>
<path d="M224.73 743.26C254.536 764.377 289.373 777.281 325.743 780.677" stroke="#171717" stroke-width="3.271" stroke-linecap="round" stroke-linejoin="round"/>
<path d="M175.005 551.705C178.928 549.115 183.365 547.406 188.012 546.696C192.659 545.986 197.404 546.291 201.922 547.59" stroke="#171717" stroke-width="3.271" stroke-linecap="round" stroke-linejoin="round"/>
<path d="M406.057 279.671C404.175 274.649 402.658 269.497 401.52 264.256" stroke="#171717" stroke-width="3.271" stroke-linecap="round" stroke-linejoin="round"/>
<path d="M418.194 275.023C416.172 270.005 414.795 264.751 414.094 259.387" stroke="#171717" stroke-width="3.271" stroke-linecap="round" stroke-linejoin="round"/>
<path d="M432.121 270.464L427.333 254.276" stroke="#171717" stroke-width="3.271" stroke-linecap="round" stroke-linejoin="round"/>
<path d="M446.589 267.869L441.2 250.426" stroke="#171717" stroke-width="3.271" stroke-linecap="round" stroke-linejoin="round"/>
<path d="M457.673 262.721C455.892 257.689 454.426 252.551 453.283 247.337" stroke="#171717" stroke-width="3.271" stroke-linecap="round" stroke-linejoin="round"/>
<path d="M470.737 440.004L450.47 426.15L450.213 451.548L470.737 440.004Z" stroke="#171717" stroke-width="3.271" stroke-linecap="round" stroke-linejoin="round"/>
<path d="M400.443 380.228L397.877 396.903L423.276 387.154L400.443 380.228Z" stroke="#171717" stroke-width="3.271" stroke-linecap="round" stroke-linejoin="round"/>
<path d="M400.443 298.388L396.595 313.268L422.763 307.881L400.443 298.388Z" stroke="#171717" stroke-width="3.271" stroke-linecap="round" stroke-linejoin="round"/>
<path d="M472.277 525.691L427.637 523.639L441.491 559.555L472.277 525.691Z" stroke="#171717" stroke-width="3.271" stroke-linecap="round" stroke-linejoin="round"/>
<path d="M373.249 513.377L346.055 522.612L350.672 499.01L373.249 513.377Z" stroke="#171717" stroke-width="3.271" stroke-linecap="round" stroke-linejoin="round"/>
<path d="M326.557 386.128L299.363 396.39L320.4 419.993L326.557 386.128Z" stroke="#171717" stroke-width="3.271" stroke-linecap="round" stroke-linejoin="round"/>
<path d="M440.978 475.407L426.098 489.261L418.914 458.475L440.978 475.407Z" stroke="#171717" stroke-width="3.271" stroke-linecap="round" stroke-linejoin="round"/>
<g opacity="0.1">
<path d="M359.9 98.7745C355.327 99.2435 351.205 104.658 348.43 107.963C344.53 112.613 340.43 119.443 339.03 125.337C337.417 132.104 338.003 139.353 339.65 146.053C341.23 152.48 344.125 161.605 350.266 164.887C354.827 167.324 362.513 164.404 361.766 158.287C361.048 152.428 357.12 148.196 355.4 142.581C353.857 137.545 353.614 132.54 353.617 127.309C353.617 121.853 353.444 117.251 355.561 112.125C356.453 109.619 357.6 107.21 358.985 104.937C360.136 103.205 360.949 102.146 361.219 100.084C361.219 99.7365 361.08 99.4028 360.834 99.1567C360.588 98.9107 360.255 98.7725 359.907 98.7725L359.9 98.7745Z" fill="#171717"/>
</g>
<g opacity="0.1">
<path d="M394.956 265.775C392.45 274.844 391.97 282.838 394.278 292.034L398.299 284.953C365.999 295.597 339.09 316.889 317.829 343.161C294.841 371.567 278.291 405.378 274.876 442.109C271.609 477.248 282.796 512.825 307.298 538.432C329.014 561.132 359.398 575.695 390.276 580.487C433.976 587.268 477.915 577.895 518.747 562.264C524.512 560.056 528.486 554.564 526.735 548.194C525.218 542.674 518.467 537.994 512.666 540.206C455.753 561.953 384.078 573.421 332.966 531.524C309.428 512.231 296.381 484.724 295.735 454.285C295.035 421.078 308.064 390.155 326.485 363.085C345.735 334.798 372.553 311.514 402.737 295.474C405.7 293.899 406.015 290.348 404.802 287.598C401.867 280.971 400.424 273.781 400.575 266.535C400.707 263.28 395.808 262.698 394.958 265.775H394.956Z" fill="#171717"/>
</g>
<g opacity="0.1">
<path d="M383.524 350.4C381.881 356.05 382.272 362.123 382.543 367.941C382.835 374.181 383.126 380.419 383.417 386.656C383.989 398.804 384.528 410.952 385.036 423.1C385.544 434.928 386.48 446.745 387.249 458.559L388.466 477.274C388.873 483.526 388.48 490.638 390.381 496.623C393.066 505.077 407.552 506.777 409.274 496.623C410.359 490.228 409.34 483.723 408.865 477.274L407.559 459.544C406.64 447.068 405.878 434.568 404.685 422.115C403.521 409.969 402.377 397.821 401.251 385.671C400.159 373.771 400.692 359.831 395.775 348.799C393.315 343.277 385.005 345.305 383.524 350.399V350.4Z" fill="#171717"/>
</g>
<defs>
<linearGradient id="paint0_linear_46_7766" x1="785.52" y1="822.556" x2="785.52" y2="907.613" gradientUnits="userSpaceOnUse">
<stop stop-color="#FFDD33"/>
<stop offset="1" stop-color="#E89A00"/>
</linearGradient>
<linearGradient id="paint1_linear_46_7766" x1="702.661" y1="205.519" x2="702.661" y2="302.493" gradientUnits="userSpaceOnUse">
<stop stop-color="#FFDD33"/>
<stop offset="1" stop-color="#E89A00"/>
</linearGradient>
<linearGradient id="paint2_linear_46_7766" x1="439.092" y1="224.815" x2="439.092" y2="575.821" gradientUnits="userSpaceOnUse">
<stop stop-color="#FFDD33"/>
<stop offset="1" stop-color="#E89A00"/>
</linearGradient>
<linearGradient id="paint3_linear_46_7766" x1="515.123" y1="309.673" x2="515.123" y2="373.305" gradientUnits="userSpaceOnUse">
<stop stop-color="#FFDD33"/>
<stop offset="1" stop-color="#E89A00"/>
</linearGradient>
<linearGradient id="paint4_linear_46_7766" x1="428.76" y1="89.5771" x2="428.76" y2="141" gradientUnits="userSpaceOnUse">
<stop stop-color="#FFDD33"/>
<stop offset="1" stop-color="#E89A00"/>
</linearGradient>
<linearGradient id="paint5_linear_46_7766" x1="370.351" y1="96.8496" x2="370.351" y2="167.139" gradientUnits="userSpaceOnUse">
<stop stop-color="#FFDD33"/>
<stop offset="1" stop-color="#E89A00"/>
</linearGradient>
<linearGradient id="paint6_linear_46_7766" x1="164.987" y1="570.556" x2="164.987" y2="681.871" gradientUnits="userSpaceOnUse">
<stop stop-color="#FFDD33"/>
<stop offset="1" stop-color="#E89A00"/>
</linearGradient>
</defs>
</svg>
